<?xml version="1.0"?>
<svg xmlns="http://www.w3.org/2000/svg" viewBox="0 0 26 26" enable-background="new 0 0 26 26">
    <path style="text-indent:0;text-align:start;line-height:normal;text-transform:none;block-progression:tb;-inkscape-font-specification:Bitstream Vera Sans" d="M 20 0 L 20 2 L 24 2 L 24 4 L 22 4 L 22 6 L 24 6 L 24 8 L 22 8 L 22 10 L 24 10 L 24 12 L 20 12 L 20 14 L 24 14 L 24 16 L 22 16 L 22 18 L 24 18 L 24 20 L 22 20 L 22 22 L 24 22 L 24 24 L 20 24 L 20 26 L 25 26 L 26 26 L 26 25 L 26 1 L 26 0 L 25 0 L 20 0 z M 4 4 C 4 6.9583333 3.8168005 8.710531 3.5625 9.8125 C 3.3081995 10.914469 3.03125 11.375 2.65625 12 C 2.28125 12.625 1.8081995 13.414469 1.5 14.75 C 1.2291494 15.923686 1.0398799 17.567749 1 20 L 0 20 L 2 23 L 4 20 L 3 20 C 3.0385346 17.667558 3.2149793 16.151756 3.4375 15.1875 C 3.6918005 14.085531 3.96875 13.625 4.34375 13 C 4.71875 12.375 5.1918005 11.585531 5.5 10.25 C 5.8081995 8.914469 6 7.0416667 6 4 L 4 4 z M 9 4 C 9 6.9583333 8.8168005 8.710531 8.5625 9.8125 C 8.3081995 10.914469 8.03125 11.375 7.65625 12 C 7.28125 12.625 6.8081995 13.414469 6.5 14.75 C 6.2291494 15.923686 6.0398799 17.567749 6 20 L 5 20 L 7 23 L 9 20 L 8 20 C 8.0385346 17.667558 8.2149793 16.151756 8.4375 15.1875 C 8.6918005 14.085531 8.96875 13.625 9.34375 13 C 9.71875 12.375 10.191801 11.585531 10.5 10.25 C 10.808199 8.914469 11 7.0416667 11 4 L 9 4 z M 14 4 C 14 6.9583333 13.816801 8.710531 13.5625 9.8125 C 13.308199 10.914469 13.03125 11.375 12.65625 12 C 12.28125 12.625 11.808199 13.414469 11.5 14.75 C 11.22915 15.923686 11.03988 17.567749 11 20 L 10 20 L 12 23 L 14 20 L 13 20 C 13.038535 17.667558 13.214979 16.151756 13.4375 15.1875 C 13.691801 14.085531 13.96875 13.625 14.34375 13 C 14.71875 12.375 15.191801 11.585531 15.5 10.25 C 15.808199 8.914469 16 7.0416667 16 4 L 14 4 z"/>
</svg>
