<?xml version="1.0" encoding="utf-8"?>
<!-- Svg Vector Icons : http://www.onlinewebfonts.com/icon -->
<!DOCTYPE svg PUBLIC "-//W3C//DTD SVG 1.1//EN" "http://www.w3.org/Graphics/SVG/1.1/DTD/svg11.dtd">
<svg version="1.1" xmlns="http://www.w3.org/2000/svg" xmlns:xlink="http://www.w3.org/1999/xlink" x="0px" y="0px" viewBox="0 0 1000 1000" enable-background="new 0 0 1000 1000" xml:space="preserve">
<metadata> Svg Vector Icons : http://www.onlinewebfonts.com/icon </metadata>
<g><g transform="translate(0.000000,512.000000) scale(0.100000,-0.100000)"><path d="M6652,4992.4c-435-159.1-561.5-693.7-239.6-1013.8c109.2-111.2,235.7-162.9,431.2-182.1c270.2-24.9,450.4-139.9,555.8-354.5c67.1-138,67.1-379.4,0-517.4c-59.4-122.7-174.4-237.6-297-297l-95.8-47.9l-3229.1-9.6l-3229.1-9.6l-95.8-47.9c-122.6-59.4-237.6-176.3-297-297c-65.2-138-65.2-379.4,0-517.4c59.4-120.7,174.4-237.6,297-297l95.8-47.9h3286.6c3075.8,0,3294.3,1.9,3418.8,34.5c688,176.3,1190.1,668.8,1376,1353c53.7,195.5,59.4,655.4,9.6,852.8c-205.1,812.5-887.3,1385.6-1699.8,1422C6782.3,5021.1,6719.1,5017.3,6652,4992.4z"/><path d="M567.5,713.1c-172.5-42.2-331.5-172.5-412-337.3c-67.1-139.9-67.1-381.4,0-517.4c59.4-122.7,174.4-237.6,297-297l95.8-47.9l3842.4-9.6l3842.4-9.6l95.8-47.9c122.7-61.3,237.6-176.3,297-297c36.4-76.7,46-126.5,46-258.7c1.9-149.5-3.8-172.5-63.3-283.6c-113.1-207-272.1-304.7-538.5-329.6c-270.2-24.9-450.4-139.9-555.8-354.5c-67.1-138-67.1-379.4,0-517.4c59.4-122.7,174.4-237.6,297-297c86.2-42.2,118.8-47.9,316.2-46c136.1,0,270.2,13.4,352.6,32.6c678.4,166.7,1190.1,668.8,1376,1353c53.7,195.5,59.4,655.4,9.6,852.8c-170.6,682.2-661.2,1180.5-1353,1377.9l-145.6,42.2L4496,724.6C2366.9,724.6,600,720.7,567.5,713.1z"/><path d="M519.5-1142c-270.2-93.9-438.8-348.8-417.8-624.7c19.2-220.4,151.4-414,350.7-511.7l95.8-47.9l2002.6-9.6l2002.6-9.6l95.8-47.9c122.6-59.4,237.6-174.4,297-297c67.1-138,67.1-379.4,0-517.4c-105.4-214.6-285.5-329.6-555.8-354.5c-195.5-19.2-321.9-70.9-431.2-182.1C3833-3869,3787-3984,3787-4175.6c0-134.2,9.6-180.2,47.9-258.7c59.4-122.7,174.4-237.6,297-297c86.2-42.2,118.8-47.9,316.2-46c136.1,0,270.2,13.4,352.6,32.6c678.4,166.7,1190.1,668.8,1376,1353c53.7,195.4,59.4,655.4,9.6,852.8c-170.6,682.2-661.2,1182.4-1353,1377.9c-145.6,42.2-157.1,42.2-2186.6,46C824.2-1111.3,596.2-1113.3,519.5-1142z"/></g></g>
</svg>