<?xml version="1.0" encoding="utf-8"?>
<!-- Svg Vector Icons : http://www.onlinewebfonts.com/icon -->
<!DOCTYPE svg PUBLIC "-//W3C//DTD SVG 1.1//EN" "http://www.w3.org/Graphics/SVG/1.1/DTD/svg11.dtd">
<svg version="1.1" xmlns="http://www.w3.org/2000/svg" xmlns:xlink="http://www.w3.org/1999/xlink" x="0px" y="0px" viewBox="0 0 1000 1000" enable-background="new 0 0 1000 1000" xml:space="preserve">
<metadata> Svg Vector Icons : http://www.onlinewebfonts.com/icon </metadata>
<g><path d="M751.1,10c0,12.3,0,24.5,0,30.6c0,6.1,0,6.1-6.1,12.2c-18.4,12.3-30.6,18.4-49,30.6c-6.1,6.1-6.1,6.1-6.1,12.3c0,159.3,0,324.6,0,483.9v6.1c18.4,6.1,30.6,12.3,49,18.4c6.1,0,12.3,6.1,12.3,12.3c0,122.5,0,238.9,0,361.4c0,6.1,0,6.1,0,12.3c30.6,0,61.3,0,85.8,0c0-324.6,0-655.4,0-980C806.3,10,775.6,10,751.1,10z"/><path d="M512.3,199.9c-6.1,0-6.1,6.1-6.1,12.3c0,98,0,196,0,294c0,6.1,0,18.4,0,24.5c36.8,12.3,79.6,24.5,116.4,36.8c0-147,0-294,0-441c0,0-6.1,0-6.1,6.1C585.8,157,549,175.4,512.3,199.9z"/><path d="M432.6,506.1c0-85.8,0-171.5,0-257.3C346.9,304,255,359.1,163.1,414.3C255,444.9,346.9,475.5,432.6,506.1z"/></g>
</svg>