<?xml version="1.0" encoding="utf-8"?>
<!-- Svg Vector Icons : http://www.onlinewebfonts.com/icon -->
<!DOCTYPE svg PUBLIC "-//W3C//DTD SVG 1.1//EN" "http://www.w3.org/Graphics/SVG/1.1/DTD/svg11.dtd">
<svg version="1.1" xmlns="http://www.w3.org/2000/svg" xmlns:xlink="http://www.w3.org/1999/xlink" x="0px" y="0px" viewBox="0 0 1000 1000" enable-background="new 0 0 1000 1000" xml:space="preserve">
<metadata> Svg Vector Icons : http://www.onlinewebfonts.com/icon </metadata>
<g><path d="M988.8,585.8c-9.6-83.4-73.8-141.5-157.1-143.8c-2.5,0-4.8,0-7.3,0c-1.2-2.5-1.2-4.8-2.5-7.3c-19.4-64-70.1-104-133-104c-21.7,0-43.5,4.8-65.3,14.6c-2.5,1.2-6,2.5-8.5,3.6c-1.2-2.5-3.6-4.8-6-7.3c-50.8-65.3-126.9-102.8-208-102.8c-65.3,0-126.9,24.2-175.3,68.9c-49.6,45.9-78.6,104-84.6,171.7c0,3.6,0,7.3,0,10.9c0,0,0,1.2,0,2.5c-1.2,0-1.2,0-2.5,0c-3.6,0-7.3,0-9.6,1.2c-37.5,4.8-67.7,20.6-89.4,48.4C7.1,584.7,1.1,633,22.9,682.6c22.9,50.8,66.5,78.6,123.3,78.6c48.4,0,97.9,0,146.3,0h347c64,0,128.2,0,192.2,0c14.5,0,26.6-1.2,38.7-4.8C946.5,738.1,998.6,663.1,988.8,585.8z M859.6,714c-8.5,2.5-18.1,2.5-27.8,3.6c-64,0-128.2,0-192.2,0H490.9H292.6c-48.4,0-97.9,0-146.3,0c-38.7,0-66.5-18.1-82.2-53.2c-15.7-33.8-10.9-64,13.3-94.2c14.5-18.1,33.8-27.8,60.4-31.5c2.5,0,4.8,0,6,0c10.9,0,24.2-1.2,35-12.1c9.6-10.9,9.6-24.2,9.6-35c0-2.5,0-4.8,0-7.3c4.8-56.9,27.8-104,70.1-142.6c39.8-37.5,91.9-56.9,145.1-56.9c67.7,0,130.5,31.5,172.8,85.8c10.9,14.6,20.6,26.6,37.5,26.6c9.6,0,16.9-3.6,30.2-9.6c15.7-7.3,31.5-10.9,47.1-10.9c42.3,0,76.1,27.8,90.7,72.5c9.6,31.5,18.1,38.7,51.9,38.7c60.4,1.2,105.2,42.3,112.4,104C951.4,646.2,914,700.6,859.6,714z"/></g>
</svg>